{
	"asset":{
		"generator":"Khronos glTF Blender I/O v4.1.62",
		"version":"2.0"
	},
	"scene":0,
	"scenes":[
		{
			"name":"Scene",
			"nodes":[
				42
			]
		}
	],
	"nodes":[
		{
			"name":"leg_front_right_toe_end",
			"rotation":[
				5.4803370500532134e-14,
				-2.249144301913475e-07,
				-2.5331974029541016e-07,
				1
			],
			"translation":[
				-4.843650458496995e-08,
				2.999995708465576,
				1.8634113985172007e-06
			]
		},
		{
			"children":[
				0
			],
			"name":"leg_front_right_toe",
			"rotation":[
				-0.587548553943634,
				0.05684719979763031,
				0.05684699863195419,
				0.8051854372024536
			],
			"scale":[
				1,
				0.9999999403953552,
				0.9999998211860657
			],
			"translation":[
				-1.7881393432617188e-07,
				8.08285903930664,
				2.9802322387695312e-06
			]
		},
		{
			"children":[
				1
			],
			"name":"leg_front_right_ankle",
			"rotation":[
				-0.14243534207344055,
				-0.7318799495697021,
				-0.1027403250336647,
				0.6584135890007019
			],
			"scale":[
				0.9999999403953552,
				0.9999998807907104,
				0.9999999403953552
			],
			"translation":[
				1.1026859283447266e-06,
				9.533196449279785,
				2.980232238769531e-07
			]
		},
		{
			"children":[
				2
			],
			"name":"leg_front_right_bot0",
			"rotation":[
				-0.14384803175926208,
				0.7511700987815857,
				-0.16647961735725403,
				0.6223630905151367
			],
			"translation":[
				-3.5762786865234375e-07,
				8.254125595092773,
				-1.430511474609375e-06
			]
		},
		{
			"children":[
				3
			],
			"name":"leg_front_right_top1",
			"rotation":[
				0.4629647433757782,
				-0.7443442344665527,
				0.1225840374827385,
				0.4653906524181366
			],
			"scale":[
				0.9999998211860657,
				0.9999997615814209,
				1
			],
			"translation":[
				1.7881393432617188e-07,
				8.502288818359375,
				-1.0058283805847168e-07
			]
		},
		{
			"children":[
				4
			],
			"name":"leg_front_right_top0",
			"rotation":[
				0.2715074419975281,
				0.45623910427093506,
				0.5087014436721802,
				0.6777554750442505
			],
			"scale":[
				1,
				0.9999999403953552,
				0.9999998807907104
			],
			"translation":[
				-0.22816194593906403,
				6.950893402099609,
				1.410601258277893
			]
		},
		{
			"name":"leg_front_left_toe_end",
			"rotation":[
				6.407502723959624e-07,
				-2.3593520381837152e-07,
				-2.2848446690204582e-07,
				1
			],
			"translation":[
				-5.627589416690171e-08,
				3.0000100135803223,
				-1.253897949027305e-06
			]
		},
		{
			"children":[
				6
			],
			"name":"leg_front_left_toe",
			"rotation":[
				-0.5875491499900818,
				-0.05684603750705719,
				-0.05684627220034599,
				0.805185079574585
			],
			"scale":[
				1,
				1,
				0.9999999403953552
			],
			"translation":[
				1.7881393432617188e-07,
				8.082850456237793,
				-1.2516975402832031e-06
			]
		},
		{
			"children":[
				7
			],
			"name":"leg_front_left_ankle",
			"rotation":[
				-0.14243564009666443,
				0.731877863407135,
				0.10274002701044083,
				0.6584157943725586
			],
			"scale":[
				0.9999999403953552,
				0.9999998807907104,
				1
			],
			"translation":[
				9.5367431640625e-07,
				9.533198356628418,
				5.960464477539063e-08
			]
		},
		{
			"children":[
				8
			],
			"name":"leg_front_left_bot0",
			"rotation":[
				-0.14384825527668,
				-0.7511685490608215,
				0.1664792001247406,
				0.6223650574684143
			],
			"scale":[
				0.9999998807907104,
				0.9999998211860657,
				0.9999998211860657
			],
			"translation":[
				1.7881393432617188e-07,
				8.254121780395508,
				4.76837158203125e-07
			]
		},
		{
			"children":[
				9
			],
			"name":"leg_front_left_top1",
			"rotation":[
				0.46519172191619873,
				0.7610666751861572,
				-0.12641942501068115,
				0.434041827917099
			],
			"scale":[
				1,
				0.9999998807907104,
				1
			],
			"translation":[
				-1.2433156371116638e-07,
				8.637899398803711,
				-8.046627044677734e-07
			]
		},
		{
			"children":[
				10
			],
			"name":"leg_front_left_top0",
			"rotation":[
				0.24495437741279602,
				-0.4765399694442749,
				-0.5274786949157715,
				0.6592975854873657
			],
			"scale":[
				0.9999999403953552,
				0.9999999403953552,
				1
			],
			"translation":[
				0.22377589344978333,
				6.9451494216918945,
				1.4073593616485596
			]
		},
		{
			"name":"head0_end",
			"rotation":[
				1.5652766194307333e-07,
				1.4435499018361497e-08,
				6.984918865526879e-09,
				1
			],
			"scale":[
				1,
				1.0000001192092896,
				1.0000001192092896
			],
			"translation":[
				2.9802322387695312e-08,
				8.519875526428223,
				-3.535766154527664e-06
			]
		},
		{
			"children":[
				12
			],
			"name":"head0",
			"rotation":[
				0.694255530834198,
				0.008214117959141731,
				0.015696726739406586,
				0.719510555267334
			],
			"scale":[
				0.9999999403953552,
				1,
				1
			],
			"translation":[
				-1.1175870895385742e-08,
				9.781205177307129,
				3.779387043323368e-06
			]
		},
		{
			"children":[
				13
			],
			"name":"neck1",
			"rotation":[
				-0.0880088284611702,
				-2.0159869329461344e-09,
				0.00029833553708158433,
				0.9961196780204773
			],
			"translation":[
				-3.725290298461914e-09,
				8.600689888000488,
				1.3957178452983499e-06
			]
		},
		{
			"children":[
				14
			],
			"name":"neck0",
			"rotation":[
				-0.21611489355564117,
				-0.0035238710697740316,
				-0.005491254851222038,
				0.9763461947441101
			],
			"scale":[
				0.9999999403953552,
				1,
				0.9999999403953552
			],
			"translation":[
				-1.862645149230957e-09,
				6.887913703918457,
				1.657288521528244e-06
			]
		},
		{
			"children":[
				5,
				11,
				15
			],
			"name":"body_top1",
			"rotation":[
				-0.05667705088853836,
				2.513428444217425e-05,
				-0.0003857891424559057,
				0.9983924627304077
			],
			"translation":[
				1.4901161193847656e-08,
				6.900442123413086,
				-2.1461164578795433e-07
			]
		},
		{
			"children":[
				16
			],
			"name":"body_top0",
			"rotation":[
				0.0771288126707077,
				-0.0044471812434494495,
				-0.0038498903159052134,
				0.9970037937164307
			],
			"scale":[
				0.9999999403953552,
				1,
				1.0000001192092896
			],
			"translation":[
				-7.450580596923828e-08,
				6.463153839111328,
				5.3497496992349625e-06
			]
		},
		{
			"name":"tail5_end",
			"rotation":[
				-8.381491056752566e-09,
				-2.2369844643321812e-08,
				4.299288480780206e-09,
				1
			],
			"translation":[
				-7.086782716214657e-09,
				3.403310537338257,
				-1.033776300118916e-07
			]
		},
		{
			"children":[
				18
			],
			"name":"tail5",
			"rotation":[
				0.0123140849173069,
				-0.005196732934564352,
				0.004972485825419426,
				0.9998983144760132
			],
			"scale":[
				1,
				0.9999997615814209,
				0.9999999403953552
			],
			"translation":[
				1.1175870895385742e-08,
				2.4974160194396973,
				-1.2444797903299332e-07
			]
		},
		{
			"children":[
				19
			],
			"name":"tail4",
			"rotation":[
				0.0006990139372646809,
				-0.00010746171756181866,
				0.00010715561802498996,
				0.9999997615814209
			],
			"translation":[
				3.725290298461914e-09,
				2.544565200805664,
				-1.3201497495174408e-07
			]
		},
		{
			"children":[
				20
			],
			"name":"tail3",
			"rotation":[
				0.005303788464516401,
				0.0053984117694199085,
				-0.004979357123374939,
				0.9999589920043945
			],
			"scale":[
				0.9999999403953552,
				0.9999998807907104,
				0.9999998807907104
			],
			"translation":[
				-9.040377335622907e-10,
				2.8257529735565186,
				1.9302945020172046e-08
			]
		},
		{
			"children":[
				21
			],
			"name":"tail2",
			"rotation":[
				-0.008582429960370064,
				6.305244681925615e-08,
				2.99333251518874e-08,
				0.9999631643295288
			],
			"scale":[
				1,
				0.9999999403953552,
				0.9999998807907104
			],
			"translation":[
				-3.064997144974768e-09,
				3.497373104095459,
				1.2546215089059842e-07
			]
		},
		{
			"children":[
				22
			],
			"name":"tail1",
			"rotation":[
				-0.03870091587305069,
				-0.007051568944007158,
				0.006617188453674316,
				0.9992040991783142
			],
			"scale":[
				0.9999999403953552,
				0.9999998807907104,
				1
			],
			"translation":[
				2.9802322387695312e-08,
				3.6312801837921143,
				-3.357534296810627e-06
			]
		},
		{
			"children":[
				23
			],
			"name":"tail0",
			"rotation":[
				0.3062033951282501,
				0.004891553893685341,
				-0.0007444798829965293,
				0.9519532918930054
			],
			"scale":[
				0.9999999403953552,
				0.9999999403953552,
				0.9999998807907104
			],
			"translation":[
				-1.1175870895385742e-08,
				10.306906700134277,
				-3.6539859138429165e-07
			]
		},
		{
			"children":[
				24
			],
			"name":"pelvis",
			"rotation":[
				-0.19970166683197021,
				0.0069739967584609985,
				-0.0048204269260168076,
				0.9798200726509094
			],
			"scale":[
				0.9999999403953552,
				1,
				1.0000001192092896
			],
			"translation":[
				-4.8427878596157825e-08,
				12.59620189666748,
				1.4307200899565942e-06
			]
		},
		{
			"name":"leg_hind_left_toe_end",
			"rotation":[
				8.693707087559233e-09,
				-1.135364868787292e-06,
				2.781548289476632e-07,
				1
			],
			"translation":[
				1.0354688129154965e-07,
				3.000000476837158,
				8.373663149541244e-07
			]
		},
		{
			"children":[
				26
			],
			"name":"leg_hind_left_toe",
			"rotation":[
				-0.6035996079444885,
				-0.26382535696029663,
				-0.26382243633270264,
				0.7046002149581909
			],
			"scale":[
				1,
				0.9999999403953552,
				0.9999998807907104
			],
			"translation":[
				-3.5762786865234375e-07,
				9.382341384887695,
				3.5762786865234375e-06
			]
		},
		{
			"children":[
				27
			],
			"name":"leg_hind_left_ankle",
			"rotation":[
				-0.5568476319313049,
				0.33893194794654846,
				-0.1984301507472992,
				0.7318957448005676
			],
			"scale":[
				0.9999999403953552,
				0.9999999403953552,
				1
			],
			"translation":[
				1.1920928955078125e-07,
				15.94773006439209,
				-1.043081283569336e-06
			]
		},
		{
			"children":[
				28
			],
			"name":"leg_hind_left_bot0",
			"rotation":[
				0.34392282366752625,
				-0.43387946486473083,
				0.2655154764652252,
				0.7892827987670898
			],
			"scale":[
				0.9999999403953552,
				1,
				0.9999998807907104
			],
			"translation":[
				-2.384185791015625e-07,
				3.6433186531066895,
				-2.384185791015625e-07
			]
		},
		{
			"children":[
				29
			],
			"name":"leg_hind_left_top1",
			"rotation":[
				0.4617559015750885,
				0.7877259850502014,
				0.13271625339984894,
				0.38555896282196045
			],
			"scale":[
				1,
				1,
				0.9999999403953552
			],
			"translation":[
				-2.384185791015625e-07,
				10.914649963378906,
				5.960464477539062e-07
			]
		},
		{
			"children":[
				30
			],
			"name":"leg_hind_left_top0",
			"rotation":[
				-0.8095510005950928,
				-0.3638158440589905,
				0.298931360244751,
				0.3505783975124359
			],
			"scale":[
				1.0000001192092896,
				1.000000238418579,
				1.000000238418579
			],
			"translation":[
				0.1843751072883606,
				12.616796493530273,
				-1.659312129020691
			]
		},
		{
			"name":"leg_hind_right_toe_end",
			"rotation":[
				3.0298843967102584e-07,
				1.0812017592343182e-07,
				-2.4833429534965035e-08,
				1
			],
			"translation":[
				-2.2979224922892172e-07,
				3.00000262260437,
				-9.04448825167492e-07
			]
		},
		{
			"children":[
				32
			],
			"name":"leg_hind_right_toe",
			"rotation":[
				-0.6035996079444885,
				0.263827919960022,
				0.2638225853443146,
				0.7045992612838745
			],
			"scale":[
				0.9999999403953552,
				1,
				0.9999999403953552
			],
			"translation":[
				-1.1920928955078125e-06,
				9.382342338562012,
				-4.76837158203125e-07
			]
		},
		{
			"children":[
				33
			],
			"name":"leg_hind_right_ankle",
			"rotation":[
				-0.5568473935127258,
				-0.3389333486557007,
				0.1984313279390335,
				0.7318949103355408
			],
			"scale":[
				0.9999998807907104,
				0.9999999403953552,
				0.9999999403953552
			],
			"translation":[
				5.662441253662109e-07,
				15.947732925415039,
				-1.087784767150879e-06
			]
		},
		{
			"children":[
				34
			],
			"name":"leg_hind_right_bot0",
			"rotation":[
				0.34392306208610535,
				0.43387797474861145,
				-0.2655150294303894,
				0.7892836332321167
			],
			"scale":[
				0.9999998211860657,
				0.9999999403953552,
				0.9999998807907104
			],
			"translation":[
				-2.384185791015625e-07,
				3.643322467803955,
				-7.152557373046875e-07
			]
		},
		{
			"children":[
				35
			],
			"name":"leg_hind_right_top1",
			"rotation":[
				0.46175575256347656,
				-0.7877254486083984,
				-0.13271504640579224,
				0.3855605721473694
			],
			"scale":[
				0.9999999403953552,
				1.000000238418579,
				1.0000001192092896
			],
			"translation":[
				1.1920928955078125e-06,
				10.914665222167969,
				0
			]
		},
		{
			"children":[
				36
			],
			"name":"leg_hind_right_top0",
			"rotation":[
				-0.8095521330833435,
				0.36893895268440247,
				-0.296251118183136,
				0.34748345613479614
			],
			"scale":[
				1.0000001192092896,
				0.9999998807907104,
				1
			],
			"translation":[
				-0.20108899474143982,
				12.618389129638672,
				-1.6573504209518433
			]
		},
		{
			"children":[
				25,
				31,
				37
			],
			"name":"body_bot",
			"rotation":[
				0.999473512172699,
				-0.010680198669433594,
				0.004453127272427082,
				0.03031138703227043
			],
			"scale":[
				1.0000003576278687,
				1.0000001192092896,
				1.0000038146972656
			],
			"translation":[
				0.01216407772153616,
				0.9943764209747314,
				-0.07900849729776382
			]
		},
		{
			"children":[
				17,
				38
			],
			"name":"body",
			"rotation":[
				0.6537005305290222,
				5.261720303906259e-08,
				0.010999253019690514,
				0.7566734552383423
			],
			"scale":[
				0.9999999403953552,
				1,
				1
			],
			"translation":[
				0.1334565430879593,
				32.1057243347168,
				-1.9054654836654663
			]
		},
		{
			"children":[
				39
			],
			"name":"root",
			"rotation":[
				-0.7071031928062439,
				0,
				0,
				0.7071103453636169
			],
			"translation":[
				-0.07587336003780365,
				0.06129264459013939,
				26.703536987304688
			]
		},
		{
			"mesh":0,
			"name":"low_poly_german_shepard_3d",
			"skin":0
		},
		{
			"children":[
				41,
				40
			],
			"name":"rig",
			"rotation":[
				0.7071068286895752,
				0,
				0,
				0.7071068286895752
			]
		}
	],
	"materials":[
		{
			"doubleSided":true,
			"name":"Dog1Mtl.001",
			"pbrMetallicRoughness":{
				"baseColorTexture":{
					"index":0
				},
				"metallicFactor":0,
				"roughnessFactor":0.6000000238418579
			}
		}
	],
	"meshes":[
		{
			"name":"low_poly_german_shepard_3d",
			"primitives":[
				{
					"attributes":{
						"POSITION":0,
						"NORMAL":1,
						"TEXCOORD_0":2,
						"JOINTS_0":3,
						"WEIGHTS_0":4
					},
					"indices":5,
					"material":0
				}
			]
		}
	],
	"textures":[
		{
			"sampler":0,
			"source":0
		}
	],
	"images":[
		{
			"mimeType":"image/png",
			"name":"Image_0",
			"uri":"Image_0.png"
		}
	],
	"skins":[
		{
			"inverseBindMatrices":6,
			"joints":[
				40,
				39,
				17,
				16,
				5,
				4,
				3,
				2,
				1,
				0,
				11,
				10,
				9,
				8,
				7,
				6,
				15,
				14,
				13,
				12,
				38,
				25,
				24,
				23,
				22,
				21,
				20,
				19,
				18,
				31,
				30,
				29,
				28,
				27,
				26,
				37,
				36,
				35,
				34,
				33,
				32
			],
			"name":"rig"
		}
	],
	"accessors":[
		{
			"bufferView":0,
			"componentType":5126,
			"count":1151,
			"max":[
				7.565971374511719,
				26.275968551635742,
				41.73843002319336
			],
			"min":[
				-7.717718124389648,
				-26.703533172607422,
				-41.615848541259766
			],
			"type":"VEC3"
		},
		{
			"bufferView":1,
			"componentType":5126,
			"count":1151,
			"type":"VEC3"
		},
		{
			"bufferView":2,
			"componentType":5126,
			"count":1151,
			"type":"VEC2"
		},
		{
			"bufferView":3,
			"componentType":5121,
			"count":1151,
			"type":"VEC4"
		},
		{
			"bufferView":4,
			"componentType":5126,
			"count":1151,
			"type":"VEC4"
		},
		{
			"bufferView":5,
			"componentType":5123,
			"count":5304,
			"type":"SCALAR"
		},
		{
			"bufferView":6,
			"componentType":5126,
			"count":41,
			"type":"MAT4"
		}
	],
	"bufferViews":[
		{
			"buffer":0,
			"byteLength":13812,
			"byteOffset":0,
			"target":34962
		},
		{
			"buffer":0,
			"byteLength":13812,
			"byteOffset":13812,
			"target":34962
		},
		{
			"buffer":0,
			"byteLength":9208,
			"byteOffset":27624,
			"target":34962
		},
		{
			"buffer":0,
			"byteLength":4604,
			"byteOffset":36832,
			"target":34962
		},
		{
			"buffer":0,
			"byteLength":18416,
			"byteOffset":41436,
			"target":34962
		},
		{
			"buffer":0,
			"byteLength":10608,
			"byteOffset":59852,
			"target":34963
		},
		{
			"buffer":0,
			"byteLength":2624,
			"byteOffset":70460
		}
	],
	"samplers":[
		{
			"magFilter":9729,
			"minFilter":9987
		}
	],
	"buffers":[
		{
			"byteLength":73084,
			"uri":"low_poly_german_shepard_3d.bin"
		}
	]
}
